<svg preserveAspectRatio="none" width="100%" height="100%" overflow="visible" style="display: block;" viewBox="0 0 88 88" fill="none" xmlns="http://www.w3.org/2000/svg">
<g id="Frame">
<path id="Vector" d="M14.6667 36.6667H73.3333V73.3333H14.6667V36.6667Z" stroke="#15102E" stroke-width="2.75" stroke-linejoin="round"/>
<path id="Vector_2" d="M44 36.6667V73.3333" stroke="#15102E" stroke-width="2.75" stroke-linecap="round"/>
<path id="Vector_3" d="M14.6667 36.6667V27.5C14.6667 24.4624 17.1291 22 20.1667 22H67.8333C70.8708 22 73.3333 24.4624 73.3333 27.5V36.6667" stroke="#15102E" stroke-width="2.75" stroke-linejoin="round"/>
<path id="Vector_4" d="M44 22C44 17.9499 47.2831 14.6667 51.3333 14.6667C57.4086 14.6667 62.3333 19.5915 62.3333 25.6667H44V22Z" stroke="#15102E" stroke-width="2.75" stroke-linejoin="round"/>
<path id="Vector_5" d="M44 22C44 17.9499 40.7169 14.6667 36.6667 14.6667C30.5915 14.6667 25.6667 19.5915 25.6667 25.6667H44V22Z" stroke="#15102E" stroke-width="2.75" stroke-linejoin="round"/>
</g>
</svg>
