<svg preserveAspectRatio="none" width="100%" height="100%" overflow="visible" style="display: block;" viewBox="0 0 88 88" fill="none" xmlns="http://www.w3.org/2000/svg">
<g id="Frame">
<path id="Vector" d="M25.6667 44V36.6667C25.6667 30.5915 30.5915 25.6667 36.6667 25.6667" stroke="#15102E" stroke-width="2.75" stroke-linecap="round"/>
<path id="Vector_2" d="M62.3333 44V36.6667C62.3333 30.5915 57.4086 25.6667 51.3333 25.6667" stroke="#15102E" stroke-width="2.75" stroke-linecap="round"/>
<path id="Vector_3" d="M22 45.8333C22 42.7959 24.4624 40.3333 27.5 40.3333H29.3333C32.3709 40.3333 34.8333 42.7959 34.8333 45.8333V55C34.8333 58.0375 32.3709 60.5 29.3333 60.5H27.5C24.4624 60.5 22 58.0375 22 55V45.8333Z" stroke="#15102E" stroke-width="2.75" stroke-linejoin="round"/>
<path id="Vector_4" d="M53.1667 45.8333C53.1667 42.7959 55.6292 40.3333 58.6667 40.3333H60.5C63.5375 40.3333 66 42.7959 66 45.8333V55C66 58.0375 63.5375 60.5 60.5 60.5H58.6667C55.6292 60.5 53.1667 58.0375 53.1667 55V45.8333Z" stroke="#15102E" stroke-width="2.75" stroke-linejoin="round"/>
</g>
</svg>
